<?xml version="1.0" standalone="no"?><!DOCTYPE svg PUBLIC "-//W3C//DTD SVG 1.1//EN" "http://www.w3.org/Graphics/SVG/1.1/DTD/svg11.dtd"><svg t="1651045881709" class="icon" viewBox="0 0 1024 1024" version="1.1" xmlns="http://www.w3.org/2000/svg" p-id="1134" xmlns:xlink="http://www.w3.org/1999/xlink" width="200" height="200"><defs><style type="text/css">@font-face { font-family: feedback-iconfont; src: url("//at.alicdn.com/t/font_1031158_u69w8yhxdu.woff2?t=1630033759944") format("woff2"), url("//at.alicdn.com/t/font_1031158_u69w8yhxdu.woff?t=1630033759944") format("woff"), url("//at.alicdn.com/t/font_1031158_u69w8yhxdu.ttf?t=1630033759944") format("truetype"); }
</style></defs><path d="M0 0m180.705882 0l662.588236 0q180.705882 0 180.705882 180.705882l0 662.588236q0 180.705882-180.705882 180.705882l-662.588236 0q-180.705882 0-180.705882-180.705882l0-662.588236q0-180.705882 180.705882-180.705882Z" fill="#EDF2F5" p-id="1135"></path><path d="M605.515294 238.923294a51.2 51.2 0 0 1 39.664941 18.82353l2.770824 3.70447 54.031059 79.872H819.2a51.2 51.2 0 0 1 50.657882 43.791059l0.451765 4.397176 0.090353 3.011765V768a51.2 51.2 0 0 1-46.772706 51.019294l-4.427294 0.180706H204.8a51.2 51.2 0 0 1-51.019294-46.772706L153.6 768V392.523294a51.2 51.2 0 0 1 46.772706-50.989176l4.427294-0.210824h118.844235l52.705883-79.48047a51.2 51.2 0 0 1 34.514823-22.287059l4.728471-0.512 3.403294-0.120471h186.518588z m-9.035294 68.276706h-168.327529l-52.675765 79.510588a51.2 51.2 0 0 1-34.544941 22.226824l-4.698353 0.542117-3.433412 0.120471H221.876706v341.323294h580.246588V409.6h-109.236706a51.2 51.2 0 0 1-37.345882-16.203294l-3.072-3.584-1.987765-2.710588-54.031059-79.902118z m-142.607059 154.744471l38.4 66.499764-44.333176 25.6-19.486118-33.671529a93.876706 93.876706 0 0 0 100.984471 135.077647l26.563764 46.019765a145.076706 145.076706 0 0 1-147.877647-239.49553l6.144-5.963294a25.6 25.6 0 0 1 39.604706 5.933177zM512 418.123294a145.076706 145.076706 0 0 1 102.339765 247.868235 25.6 25.6 0 0 1-40.146824-5.451294l-38.4-66.499764 44.333177-25.6 18.251294 31.533176a93.876706 93.876706 0 0 0-97.219765-130.017882l-27.015529-46.832941c12.047059-3.252706 24.756706-4.999529 37.857882-4.99953z" fill="#2A5176" p-id="1136"></path></svg>