<?xml version="1.0" standalone="no"?><!DOCTYPE svg PUBLIC "-//W3C//DTD SVG 1.1//EN" "http://www.w3.org/Graphics/SVG/1.1/DTD/svg11.dtd"><svg t="1651124181263" class="icon" viewBox="0 0 1024 1024" version="1.1" xmlns="http://www.w3.org/2000/svg" p-id="2435" xmlns:xlink="http://www.w3.org/1999/xlink" width="200" height="200"><defs><style type="text/css">@font-face { font-family: feedback-iconfont; src: url("//at.alicdn.com/t/font_1031158_u69w8yhxdu.woff2?t=1630033759944") format("woff2"), url("//at.alicdn.com/t/font_1031158_u69w8yhxdu.woff?t=1630033759944") format("woff"), url("//at.alicdn.com/t/font_1031158_u69w8yhxdu.ttf?t=1630033759944") format("truetype"); }
</style></defs><path d="M0 0m180.705882 0l662.588236 0q180.705882 0 180.705882 180.705882l0 662.588236q0 180.705882-180.705882 180.705882l-662.588236 0q-180.705882 0-180.705882-180.705882l0-662.588236q0-180.705882 180.705882-180.705882Z" fill="#EDF2F5" p-id="2436"></path><path d="M716.107294 477.665882c17.588706 0 32.075294 13.312 33.942588 30.418824l0.210824 3.915294h0.060235l-0.63247 7.559529a239.043765 239.043765 0 0 1-203.565177 211.877647v70.686118h136.553412V870.4H341.323294v-68.276706h136.553412v-70.686118a237.417412 237.417412 0 0 1-90.352941-32.527058l50.236235-50.266353a170.676706 170.676706 0 0 0 244.073412-136.613647h0.150588c0-17.829647 13.312-32.316235 30.418824-34.153412l3.70447-0.210824z m-28.099765-224.075294l48.278589 48.248471-434.447059 434.447059-48.278588-48.278589L688.007529 253.590588z m-30.930823 175.736471v65.596235c0 75.414588-64.963765 136.553412-145.076706 136.553412-17.197176 0-33.731765-2.831059-49.031529-8.011294l61.259294-61.229177c31.683765-5.059765 56.380235-29.485176 59.873882-59.873882l72.975059-73.035294z m-349.214118 48.850823c17.588706 0 32.075294 13.312 33.942588 30.418824l0.150589 3.403294h0.210823c1.114353 11.264 3.312941 22.166588 6.505412 32.647529L296.056471 597.323294a237.266824 237.266824 0 0 1-20.781177-69.571765l-1.475765-13.010823-0.060235-2.43953-0.060235-0.301176a34.213647 34.213647 0 0 1 34.183529-33.822118zM512 170.676706c58.307765 0 108.574118 32.346353 131.614118 79.028706l-59.090824 59.090823V307.2c0-37.707294-32.466824-68.276706-72.523294-68.276706-38.4 0-69.812706 28.069647-72.372706 63.608471l-0.150588 4.668235v146.672941l-69.421177 69.391059a129.054118 129.054118 0 0 1-2.981647-22.076235l-0.150588-6.264471V307.2c0-75.414588 64.963765-136.523294 145.076706-136.523294z" fill="#2A5176" p-id="2437"></path></svg>