<?xml version="1.0" standalone="no"?><!DOCTYPE svg PUBLIC "-//W3C//DTD SVG 1.1//EN" "http://www.w3.org/Graphics/SVG/1.1/DTD/svg11.dtd"><svg t="1651028705158" class="icon" viewBox="0 0 1024 1024" version="1.1" xmlns="http://www.w3.org/2000/svg" p-id="1214" xmlns:xlink="http://www.w3.org/1999/xlink" width="200" height="200"><defs><style type="text/css">@font-face { font-family: feedback-iconfont; src: url("//at.alicdn.com/t/font_1031158_u69w8yhxdu.woff2?t=1630033759944") format("woff2"), url("//at.alicdn.com/t/font_1031158_u69w8yhxdu.woff?t=1630033759944") format("woff"), url("//at.alicdn.com/t/font_1031158_u69w8yhxdu.ttf?t=1630033759944") format("truetype"); }
</style></defs><path d="M0 0m150.588235 0l722.82353 0q150.588235 0 150.588235 150.588235l0 722.82353q0 150.588235-150.588235 150.588235l-722.82353 0q-150.588235 0-150.588235-150.588235l0-722.82353q0-150.588235 150.588235-150.588235Z" fill="#FFFFFF" p-id="1215"></path><path d="M512 187.723294c188.536471 0 341.323294 152.816941 341.323294 341.353412C853.323294 717.583059 700.536471 870.4 512 870.4c-188.536471 0-341.323294-152.816941-341.323294-341.323294 0-188.536471 152.816941-341.353412 341.323294-341.353412z m68.306824 183.476706v76.890353a119.476706 119.476706 0 1 1-136.58353 0v-76.890353A187.813647 187.813647 0 0 0 512 733.876706a187.723294 187.723294 0 0 0 68.306824-362.676706zM512 307.2c-18.853647 0-34.123294 15.269647-34.123294 34.123294v136.553412a34.123294 34.123294 0 1 0 68.246588 0v-136.553412c0-18.853647-15.269647-34.123294-34.123294-34.123294z" fill="#E62C12" p-id="1216"></path></svg>