<?xml version="1.0" standalone="no"?><!DOCTYPE svg PUBLIC "-//W3C//DTD SVG 1.1//EN" "http://www.w3.org/Graphics/SVG/1.1/DTD/svg11.dtd"><svg t="1651122880127" class="icon" viewBox="0 0 1024 1024" version="1.1" xmlns="http://www.w3.org/2000/svg" p-id="2294" xmlns:xlink="http://www.w3.org/1999/xlink" width="200" height="200"><defs><style type="text/css">@font-face { font-family: feedback-iconfont; src: url("//at.alicdn.com/t/font_1031158_u69w8yhxdu.woff2?t=1630033759944") format("woff2"), url("//at.alicdn.com/t/font_1031158_u69w8yhxdu.woff?t=1630033759944") format("woff"), url("//at.alicdn.com/t/font_1031158_u69w8yhxdu.ttf?t=1630033759944") format("truetype"); }
</style></defs><path d="M0 0m180.705882 0l662.588236 0q180.705882 0 180.705882 180.705882l0 662.588236q0 180.705882-180.705882 180.705882l-662.588236 0q-180.705882 0-180.705882-180.705882l0-662.588236q0-180.705882 180.705882-180.705882Z" fill="#EDF2F5" p-id="2295"></path><path d="M738.364235 207.239529l48.278589 48.278589L183.235765 858.925176l-48.278589-48.278588L738.364235 207.239529z m80.835765 103.966118a51.2 51.2 0 0 1 50.657882 43.791059l0.451765 4.397176 0.090353 3.011765V737.882353a51.2 51.2 0 0 1-46.772706 51.019294l-4.427294 0.180706H301.357176l68.246589-68.276706h432.519529V379.482353h-91.196235l68.246588-68.276706H819.2z m-213.684706-102.4a51.2 51.2 0 0 1 39.664941 18.823529l2.770824 3.704471 7.258353 10.782118-49.152 49.152-9.60753-14.185412h-168.297411l-52.675765 79.510588a51.2 51.2 0 0 1-34.544941 22.226824l-4.698353 0.542117-3.433412 0.120471H221.876706l-0.030118 295.996235-67.945412 67.945412a51.410824 51.410824 0 0 1-0.12047-1.114353L153.6 737.882353V362.405647a51.2 51.2 0 0 1 46.772706-50.989176l4.427294-0.210824h118.844235l52.705883-79.480471a51.2 51.2 0 0 1 34.514823-22.287058l4.728471-0.512 3.403294-0.120471h186.518588z m-133.24047 409.359059a93.515294 93.515294 0 0 0 57.163294 7.168l26.563764 46.019765c-13.884235 4.427294-28.672 6.806588-44.001882 6.806588a144.384 144.384 0 0 1-77.372235-22.347294l37.647059-37.647059z m162.454588-162.454588c14.155294 22.377412 22.347294 48.941176 22.347294 77.372235a144.624941 144.624941 0 0 1-42.736941 102.791529 25.6 25.6 0 0 1-40.146824-5.451294l-38.4-66.499764 44.333177-25.6 18.251294 31.533176c4.818824-11.294118 7.499294-23.732706 7.499294-36.773647 0-14.185412-3.162353-27.648-8.794353-39.725177l37.647059-37.647058z m-180.856471-23.883294l4.246588 7.378823-91.136 91.136 0.150589-5.089882a144.655059 144.655059 0 0 1 46.170353-98.484706l0.240941-0.210824 0.722823-0.662588a25.6 25.6 0 0 1 39.604706 5.933177z m55.416471-43.791059l-24.094118 24.094117-11.053176-19.124706c11.233882-3.011765 22.979765-4.728471 35.117176-4.969411z" fill="#2A5176" p-id="2296"></path></svg>