<?xml version="1.0" standalone="no"?><!DOCTYPE svg PUBLIC "-//W3C//DTD SVG 1.1//EN" "http://www.w3.org/Graphics/SVG/1.1/DTD/svg11.dtd"><svg t="1651045889509" class="icon" viewBox="0 0 1024 1024" version="1.1" xmlns="http://www.w3.org/2000/svg" p-id="1270" xmlns:xlink="http://www.w3.org/1999/xlink" width="200" height="200"><defs><style type="text/css">@font-face { font-family: feedback-iconfont; src: url("//at.alicdn.com/t/font_1031158_u69w8yhxdu.woff2?t=1630033759944") format("woff2"), url("//at.alicdn.com/t/font_1031158_u69w8yhxdu.woff?t=1630033759944") format("woff"), url("//at.alicdn.com/t/font_1031158_u69w8yhxdu.ttf?t=1630033759944") format("truetype"); }
</style></defs><path d="M0 0m180.705882 0l662.588236 0q180.705882 0 180.705882 180.705882l0 662.588236q0 180.705882-180.705882 180.705882l-662.588236 0q-180.705882 0-180.705882-180.705882l0-662.588236q0-180.705882 180.705882-180.705882Z" fill="#EDF2F5" p-id="1271"></path><path d="M512 172.333176c77.884235 0 141.432471 57.795765 144.926118 130.288942l0.150588 6.26447v187.723294c0 75.414588-64.963765 136.523294-145.076706 136.523294-77.884235 0-141.432471-57.765647-144.926118-130.258823l-0.150588-6.264471v-187.723294c0-75.414588 64.963765-136.553412 145.076706-136.553412z m0 68.276706c-38.4 0-69.812706 28.069647-72.372706 63.608471l-0.150588 4.668235v187.723294c0 37.707294 32.466824 68.276706 72.523294 68.276706 38.4 0 69.812706-28.069647 72.372706-63.60847l0.150588-4.668236v-187.723294c0-37.707294-32.466824-68.276706-72.523294-68.276706z m238.230588 271.36l0.090353 0.030118a239.013647 239.013647 0 0 1-204.197647 219.437176v70.656l136.553412 0.030118V870.4H341.323294v-68.276706h136.553412v-70.686118a239.073882 239.073882 0 0 1-202.962824-206.607058l-1.084235-10.059294-0.090353-2.469648-0.060235-0.301176a34.123294 34.123294 0 1 1 68.126117-3.433412l0.150589 3.433412h0.210823a170.676706 170.676706 0 0 0 339.666824 0h0.150588c0-17.769412 13.312-32.286118 30.418824-34.123294l3.70447-0.210824c17.588706 0 32.075294 13.312 33.942588 30.418824l0.210824 3.915294z" fill="#2A5176" p-id="1272"></path></svg>